<?xml version="1.0" encoding="utf-8"?>
<!-- Generator: Adobe Illustrator 21.0.2, SVG Export Plug-In . SVG Version: 6.00 Build 0)  -->
<svg version="1.1" id="Layer_1" xmlns="http://www.w3.org/2000/svg" xmlns:xlink="http://www.w3.org/1999/xlink" x="0px" y="0px"
	 viewBox="0 0 57.5 63.8" style="enable-background:new 0 0 57.5 63.8;" xml:space="preserve">
<style type="text/css">
	.st0{fill:#666666;}
	.st1{fill:#666666;stroke:#666666;stroke-miterlimit:10;}
</style>
<path id="XMLID_258_" class="st1" d="M20.9,8.9L30.8,1v5.6c13.8,0.3,26,13.3,26.2,27.9c0,1.1,0,2.3-0.2,3.4l-0.2,1.6h0.1
	c-0.8,6.1-4.1,12.1-9.3,16.6c-0.3,0.3-0.7,0.6-1,0.9l-0.5,0.4c0,0-0.1,0.1-0.1,0.1l-0.6,0.4c-4.8,3.4-10.4,5.3-16.2,5.4
	c-1,0-2.1,0-3.2-0.1L24.2,63v0.2c-4.9-0.6-9.7-2.9-13.7-6.4c-1.5-1.2-2.8-2.6-3.9-4l0.1-0.1l-0.9-1.2c-3.4-4.8-5.2-10.3-5.3-16
	c-0.1-7.8,3-15.3,8.6-20.8l3.6,2.8C7.7,22.1,4.9,28.6,5,35.4c0.1,4.9,1.6,9.6,4.4,13.7c4.6,6.2,11.9,9.8,19.5,9.7
	c4.9-0.1,9.7-1.6,13.8-4.5l1.2-0.8l-0.1-0.2c5.6-4.6,8.8-11.5,8.7-18.7C52.3,22,42.6,11.5,30.8,11.1v5.6L20.9,8.9z"/>
</svg>
